<svg class="profile-silhouette" viewBox="0 0 220 220" width="220" height="220" role="img" aria-labelledby="sil-title-kosovo">
  <title id="sil-title-kosovo">Outline of Kosovo</title>
  <path d="M46.5,78.6 L61.0,75.1 L63.1,72.7 L59.8,67.4 L61.7,64.1 L79.0,54.7 L81.8,50.4 L82.9,47.1 L80.6,43.5 L77.3,37.9 L78.9,35.6 L87.9,32.4 L95.2,28.6 L99.5,28.3 L102.2,31.0 L102.2,33.8 L104.6,38.5 L109.9,41.0 L118.9,45.2 L129.2,48.0 L137.4,53.7 L148.5,63.7 L150.1,68.7 L160.1,73.2 L169.4,78.2 L168.0,87.5 L199.5,95.6 L206.6,95.5 L210.0,97.0 L209.9,99.1 L207.4,105.6 L194.5,125.6 L193.4,129.7 L184.1,134.1 L182.8,136.6 L185.5,142.1 L187.9,146.0 L167.8,149.2 L161.1,153.0 L157.2,159.6 L155.9,163.0 L152.4,163.1 L146.5,159.7 L139.2,154.4 L129.6,154.8 L96.9,166.4 L93.7,172.6 L92.9,185.8 L90.7,189.4 L87.2,191.7 L73.7,190.2 L72.3,189.3 L74.1,184.3 L73.3,173.2 L67.3,154.8 L62.9,148.8 L54.0,142.8 L47.0,138.9 L34.5,135.4 L28.1,125.3 L18.6,113.8 L14.0,111.2 L14.7,110.0 L16.9,101.4 L14.2,95.1 L10.0,89.7 L12.9,86.5 L21.7,86.5 L28.9,87.1 L31.5,82.0 L46.5,78.6 Z" fill="currentColor"/>
</svg>