<svg class="profile-silhouette" viewBox="0 0 220 220" width="220" height="220" role="img" aria-labelledby="sil-title-slovakia">
  <title id="sil-title-slovakia">Outline of Slovakia</title>
  <path d="M210.0,96.2 L209.5,97.6 L208.0,99.3 L206.2,101.1 L204.7,103.2 L202.7,107.7 L201.4,109.8 L196.1,113.9 L195.7,119.7 L182.8,122.1 L181.2,121.8 L179.6,120.6 L178.6,119.8 L177.0,117.6 L175.6,116.5 L173.6,115.6 L171.7,114.5 L169.3,114.5 L162.7,116.0 L158.2,116.2 L155.1,115.7 L151.1,114.8 L143.2,114.6 L137.8,115.4 L137.3,116.5 L132.3,123.6 L125.1,126.2 L118.8,128.8 L117.0,129.4 L113.9,128.5 L110.3,126.9 L107.3,126.1 L105.2,126.5 L102.8,128.3 L101.8,130.1 L94.7,131.4 L82.3,132.2 L78.0,134.0 L76.5,136.1 L76.4,137.8 L77.5,139.2 L76.2,140.8 L66.9,141.8 L55.2,142.3 L48.2,142.2 L41.7,142.1 L37.2,140.7 L31.8,137.9 L26.0,134.3 L24.6,133.8 L21.0,133.6 L17.9,132.6 L17.2,131.0 L13.9,127.0 L10.1,120.3 L10.0,118.4 L11.5,116.2 L12.8,114.6 L13.0,113.2 L14.3,110.1 L17.1,106.5 L19.6,104.3 L21.5,103.6 L25.3,104.3 L31.8,104.8 L36.9,104.3 L41.6,102.7 L44.1,101.3 L46.3,99.8 L47.0,98.8 L51.9,97.5 L53.1,96.4 L53.6,94.5 L53.9,92.4 L54.7,90.8 L55.7,89.7 L62.9,86.9 L63.6,85.9 L64.7,85.0 L66.8,83.9 L68.9,82.4 L71.1,81.4 L73.9,81.5 L76.5,81.3 L78.5,80.8 L83.1,81.2 L83.8,82.9 L84.2,84.8 L90.6,84.6 L94.1,80.7 L96.0,80.3 L98.9,78.9 L100.9,77.7 L102.2,78.4 L104.2,81.0 L106.2,83.0 L107.4,83.8 L108.7,84.8 L111.0,85.0 L112.6,85.6 L113.0,87.5 L113.1,89.2 L112.4,90.5 L113.6,92.0 L115.9,91.6 L117.6,90.9 L122.6,92.4 L124.3,89.2 L126.3,87.6 L128.9,86.8 L131.2,85.9 L133.3,85.2 L134.8,85.2 L137.3,85.0 L139.4,85.3 L142.3,84.9 L146.2,85.7 L148.7,87.2 L151.1,87.7 L153.9,87.6 L155.8,86.8 L158.6,84.0 L160.6,84.0 L163.7,83.6 L168.1,83.6 L178.3,84.2 L180.9,85.3 L187.1,86.6 L189.9,88.2 L191.1,90.1 L191.7,91.4 L198.2,93.3 L207.7,95.9 L210.0,96.2 Z" fill="currentColor"/>
</svg>